<svg width="8" height="34" viewBox="0 0 8 34" fill="none" xmlns="http://www.w3.org/2000/svg">
<path d="M0.0154061 4.45966L1.66642 23.8419C1.76275 24.9828 2.64587 25.9232 3.79679 26.0264C5.08595 26.142 6.2223 25.1638 6.3348 23.8419L7.98581 4.45966C8.00357 4.23314 8.00585 3.97931 7.98581 3.74579C7.79361 1.48858 5.85361 -0.181093 3.65264 0.0157644C1.45167 0.213089 -0.176795 2.20292 0.0154061 4.45966Z" fill="white"/>
<path d="M4.00057 34C5.82423 34 7.3026 32.484 7.3026 30.614C7.3026 28.7439 5.82423 27.2279 4.00057 27.2279C2.17691 27.2279 0.698547 28.7439 0.698547 30.614C0.698547 32.484 2.17691 34 4.00057 34Z" fill="white"/>
</svg>
