<svg height="511pt" viewBox="-63 1 511 511.99998" width="511pt" xmlns="http://www.w3.org/2000/svg"><path d="m384.308594 111.007812c-.09375-1.414062-.371094-2.804687-.832032-4.144531-.175781-.511719-.304687-.992187-.527343-1.488281-.78125-1.742188-1.863281-3.328125-3.199219-4.6875l-96-96c-1.359375-1.347656-2.953125-2.433594-4.707031-3.199219-.46875-.203125-.949219-.378906-1.4375-.527343-1.363281-.46875-2.785157-.75-4.226563-.832032-.253906.03125-.558594-.128906-.878906-.128906h-224c-26.511719 0-48 21.488281-48 48v416c0 26.511719 21.488281 48 48 48h288c26.507812 0 48-21.488281 48-48v-352c0-.335938-.175781-.640625-.191406-.992188zm-54.433594-15.007812h-41.375v-41.375zm6.625 384h-288c-8.835938 0-16-7.164062-16-16v-416c0-8.835938 7.164062-16 16-16h208v64c0 17.671875 14.328125 32 32 32h64v336c0 8.835938-7.164062 16-16 16zm0 0"/></svg>